<?xml version="1.0" encoding="iso-8859-1"?>
<!-- Generator: Adobe Illustrator 21.0.0, SVG Export Plug-In . SVG Version: 6.00 Build 0)  -->
<svg version="1.1" id="Layer_1" xmlns="http://www.w3.org/2000/svg" xmlns:xlink="http://www.w3.org/1999/xlink" x="0px" y="0px"
	 viewBox="0 0 1500 1500" style="enable-background:new 0 0 1500 1500;" xml:space="preserve">
<g>
	<path style="fill:#FFFFFF;" d="M943.162,375.666C902.302,378.722,895,416,895,416l1.604,22.87l39.413,4.179L943.162,375.666z"/>
	<polygon style="fill:#FFFFFF;" points="903,530 965,532 985.457,458.85 897.352,449.508 	"/>
	<path style="fill:#FFFFFF;" d="M988.325,448.596L998,414c-1-29-40-38-40-38c-1.988-0.221-3.907-0.363-5.775-0.448l-7.258,68.446
		L988.325,448.596z"/>
	<path style="fill:#FFFFFF;" d="M967.369,818.172L976,793c0,0,2.367-26.283-22.021-34.771l-16.378,53.836L967.369,818.172z"/>
	<path style="fill:#FFFFFF;" d="M945.197,756.173c-0.402-0.055-0.784-0.126-1.197-0.173c-35-4-46,26-46,26l-4.252,21.066
		l34.999,7.182L945.197,756.173z"/>
	<polygon style="fill:#FFFFFF;" points="891.968,811.889 876,891 940,898 964.427,826.756 	"/>
	<polygon style="fill:#FFFFFF;" points="548.064,895 612.064,888 597.319,814.943 525.658,829.647 	"/>
	<path style="fill:#FFFFFF;" d="M535.346,754.795C509.596,762.794,512.064,790,512.064,790l10.65,31.064l30.865-6.333
		L535.346,754.795z"/>
	<path style="fill:#FFFFFF;" d="M595.539,806.122L590.064,779c0,0-10.973-29.915-45.861-26.012l18.231,59.926L595.539,806.122z"/>
	<path style="fill:#FFFFFF;" d="M806.547,753.777c-12.848-9.772-30.197-17.131-53.457-17.732v89.518L806.547,753.777z"/>
	<path style="fill:#FFFFFF;" d="M744.091,736.165c-22.368,1.175-38.996,8.969-51.276,19.092l51.276,68.859V736.165z"/>
	<polygon style="fill:#FFFFFF;" points="685,951 804,951 831.728,843.086 665.866,843.086 	"/>
	<path style="fill:#FFFFFF;" d="M813.423,759.611l-54.342,72.975h75.345L841,807C841,807,835.346,780.27,813.423,759.611z"/>
	<path style="fill:#FFFFFF;" d="M686.148,761.374C665.152,782.794,660,810,660,810l4.005,22.586h75.173L686.148,761.374z"/>
	<path style="fill:#FFFFFF;" d="M698.124,603.259L704,580c0,0-3.763-46.07-59.606-48.866l-2.429,70.181L698.124,603.259z"/>
	<polygon style="fill:#FFFFFF;" points="593,677 611,677 613,636 669,635 668,676 680,675 695.493,613.674 579.24,609.65 	"/>
	<path style="fill:#FFFFFF;" d="M635.391,531.071C577.849,533.121,574,584,574,584l3.079,15.069l55.892,1.935L635.391,531.071z"/>
	<path d="M1029.076,726.092h37.498v-74.997l-71.996-1.5l35.998-275.986l44.998-1.5l20.999-7.5l16.499-44.998
		c0,0,1.5-9-16.499-28.499l-34.498,19.499l25.498,4.5l-4.499,13.499l-32.999,10.5c0,0-74.996-161.992,37.498-241.488
		c0,0-127.493,1.5-212.989,196.49c0,0-11.999,35.998-31.498,43.498c-19.499,7.5-28.499-12-28.499-12l17.999-28.499l-38.998,20.999
		l12,38.999l56.997,6l-19.499,313.484l-35.998-3l1.5-43.498l-49.498,1.5V499.603l14.999,7.5l64.497-52.497l-22.499-50.998l-28.498,6
		l14.999,14.999l10.499,25.499l-31.498,16.499c0,0-94.495-337.483-184.491-373.481c0,0,50.998,191.991-100.495,356.982
		c0,0-22.499,25.499-44.998,17.999s-4.5-46.498-4.5-46.498l26.999-34.499l6-25.499l-55.498,41.998l-6,68.997l31.499,38.998l52.498,3
		l10.5,119.994h-22.499l1.5,38.998l-44.998-1.5l-3-37.498l-50.998,9l11.999,80.996l37.499-1.5l44.998,232.488l-107.995-7.5v23.999
		l15,25.499l17.999-19.499l16.499,47.997l22.499-43.497l17.999,59.997l19.499-59.997l3,73.496l59.997,41.998l-1.5,55.497l-9,19.499
		l9,19.499l22.499,10.5l32.999,77.996l-7.5,20.998l-37.498,13.5l-7.5,56.997c0,0-24.172-12.832-19.968-47.635
		c0.037-0.307,0.076-0.614,0.118-0.925c0,0-11,4.25-6.75,42c0,0-12.75-22.75-32.5-24.75c0,0,19,20.75,22.5,40.25
		c0,0-17-19.5-31.25-20.75c0,0,11,13.75,4,21.25l-38.75,6l-7.75-3.75l-11.5,1.25L413,1391v6l619,13l-63-12l-28-13l-24,3l-23-1
		c0,0,2.75-7.25,0-16.25c0,0-7.5,10.25-11.25,9c0,0,14.75-30.25,30.5-39.75c0,0-13.25-3.75-36.75,21.25c0,0-0.25-32.25,31.25-56.75
		c0,0-21,5.75-29.5,15.75s-29,57.75-29,57.75l1.25-57.5l27-23.5c0,0,2.25-40-16.25-58.25l17-34l-7.75-45l-30.75-7l-4.25-41.25
		l59.5-25l19-69l18.5-9.75l12.25,28.25l19.5-49.25l13.5,74l26.5-73.25l11.5,55.25l10.25-48.5l17.5,29.25l22.25-28.25l2-41.5
		l-93.5,0.5L1029.076,726.092z M806.547,753.777l-53.457,71.786v-89.518C776.35,736.646,793.699,744.005,806.547,753.777z M613,636
		l-2,41h-18l-13.76-67.35l116.253,4.024L680,675l-12,1l1-41L613,636z M660,810c0,0,5.152-27.206,26.148-48.626l53.029,71.212
		h-75.173L660,810z M744.091,824.116l-51.276-68.859c12.28-10.123,28.908-17.917,51.276-19.092V824.116z M704,580l-5.876,23.259
		l-56.159-1.944l2.429-70.181C700.237,533.93,704,580,704,580z M635.391,531.071l-2.42,69.933l-55.892-1.935L574,584
		C574,584,577.849,533.121,635.391,531.071z M590.064,779l5.474,27.122l-33.104,6.792l-18.231-59.926
		C579.091,749.085,590.064,779,590.064,779z M535.346,754.795l18.234,59.937l-30.865,6.333L512.064,790
		C512.064,790,509.596,762.794,535.346,754.795z M548.064,895l-22.407-65.353l71.661-14.704L612.064,888L548.064,895z M804,951H685
		l-19.134-107.914h165.861L804,951z M834.426,832.586h-75.345l54.342-72.975C835.346,780.27,841,807,841,807L834.426,832.586z
		 M893.748,803.066L898,782c0,0,11-30,46-26c0.413,0.047,0.795,0.118,1.197,0.173l-16.45,54.075L893.748,803.066z M953.979,758.229
		C978.367,766.717,976,793,976,793l-8.631,25.172l-29.768-6.107L953.979,758.229z M965,532l-62-2l-5.648-80.492l88.105,9.342
		L965,532z M998,414l-9.675,34.596l-43.358-4.598l7.258-68.446c1.868,0.085,3.787,0.228,5.775,0.448C958,376,997,385,998,414z
		 M943.162,375.666l-7.145,67.383l-39.413-4.179L895,416C895,416,902.302,378.722,943.162,375.666z M940,898l-64-7l15.968-79.111
		l72.459,14.867L940,898z"/>
	<path d="M1282.244,856.951c-1.407-4.094-3.168-8.064-4.959-12.58c-2.327,1.381-4.332,2.601-6.364,3.773
		c-9.342,5.387-19.105,9.244-30.192,8.076c-11.869-1.251-20.588-7.593-27.234-17.131c-1.636-2.348,0.487-8.862,3.301-10.691
		c5.307-3.451,8.764-8.073,9.269-14.575c-1.36-0.712-2.72-1.425-4.079-2.137c-3.249,0.287-6.499,0.793-9.745,0.77
		c-1.622-0.012-3.225-1.03-4.855-1.526c-4.008-1.219-6.483-3.756-7.774-7.83c-0.58-1.831-2.272-3.309-3.461-4.947
		c-1.359-0.712-2.72-1.424-4.079-2.137c-4.602,5.015-7.278,10.675-6.255,17.713c0.448,3.082-3.755,7.709-7.107,7.971
		c-11.84,0.925-21.5-3.221-28.791-12.629c-6.781-8.752-9.627-19.054-11.435-29.731c-0.423-2.504-0.698-5.032-1.167-8.468
		c-7.175,2.658-14.197,4.866-20.891,7.818c-17.961,7.921-33.95,18.622-46.215,34.284c-0.135,0.171-0.451,0.2-0.682,0.296
		c-0.238,0.454-0.476,0.907-0.713,1.36c10.648,1.277,21.104,3.229,31.076,7.465c17.385,7.381,29.063,18.753,28.273,39.264
		c2.551-0.265,4.92-0.649,7.299-0.732c10.515-0.369,17.662,5.471,19.943,16.252c2.05,9.69,0.768,19.285-0.935,28.861
		c-0.175,0.986-0.333,1.977-0.488,2.897c5.421-4.788,10.584-9.797,16.236-14.174c3.375-2.614,7.338-4.713,11.347-6.218
		c10.191-3.826,19.343-0.27,24.814,9.18c1.012,1.747,1.86,3.588,2.794,5.405c17.055-11.719,34.655-7.403,48.966,2.989
		c8.574,6.226,15.909,14.155,23.801,21.32c1.068-2.04,2.138-4.08,3.206-6.119c0.96-3.792,2.123-7.546,2.845-11.383
		C1291.398,891.512,1288.126,874.07,1282.244,856.951z"/>
	<path d="M298.146,328.681c0.218,0.463,0.436,0.926,0.653,1.389c7.455-7.711,15.329-14.859,24.731-20.245
		c16.389-9.388,32.507-11.817,48.369,1.209c1.331-2.191,2.456-4.311,3.828-6.257c6.062-8.599,15.035-10.763,25.001-6.063
		c8.959,4.224,15.828,11.045,22.428,18.189c0.68,0.736,1.373,1.46,2.013,2.141c-0.538-7.213-1.407-14.354-1.478-21.502
		c-0.042-4.269,0.682-8.695,1.906-12.798c3.112-10.432,11.478-15.572,22.312-14.219c2.003,0.25,3.983,0.687,5.995,1.041
		c0.974-20.669,15.05-32.082,31.979-37.202c10.142-3.067,20.894-4.117,31.371-6.074c-0.979-2.084-1.958-4.168-2.937-6.252
		c-2.441-3.057-4.728-6.253-7.349-9.146c-12.38-13.67-28.253-21.605-45.447-27.267c-4.111-1.354-8.339-2.352-13.019-3.653
		c-0.306,2.688-0.546,5.022-0.841,7.35c-1.355,10.698-4.184,20.808-11.816,28.934c-8.171,8.699-18.493,11.813-30.109,11.342
		c-2.859-0.116-6.765-5.745-6.521-9.091c0.458-6.314-1.135-11.861-6.009-16.194c-1.39,0.653-2.779,1.306-4.168,1.958
		c-1.734,2.762-3.296,5.657-5.277,8.229c-0.989,1.285-2.769,1.946-4.15,2.946c-3.393,2.456-6.911,2.894-10.937,1.459
		c-1.809-0.645-4.01-0.189-6.033-0.233c-1.39,0.653-2.779,1.306-4.168,1.958c1.213,6.697,4.104,12.25,10.33,15.689
		c2.727,1.506,3.872,7.652,2.054,10.481c-6.419,9.99-15.562,15.181-27.464,15.302c-11.071,0.112-20.998-3.848-30.596-8.862
		c-2.251-1.176-4.432-2.485-7.452-4.188c-2.218,7.322-4.705,14.251-6.399,21.368c-4.546,19.097-5.685,38.302-0.623,57.54
		C298.377,328.169,298.209,328.438,298.146,328.681z"/>
	<path d="M763.72,246.571c1.306-0.739,2.485-1.5,3.742-2.102c5.551-2.659,10.75-1.201,14.497,4.046
		c3.367,4.716,4.926,10.161,6.255,15.693c0.137,0.57,0.283,1.138,0.416,1.668c1.786-3.836,3.382-7.73,5.388-11.4
		c1.197-2.191,2.832-4.245,4.629-5.99c4.568-4.437,10.308-4.672,15.453-0.887c0.951,0.7,1.838,1.489,2.764,2.244
		c6.401-10.275,16.848-12.081,26.954-9.859c6.054,1.331,11.843,3.866,17.752,5.86c0.095-1.343,0.19-2.687,0.286-4.031
		c-0.373-2.258-0.628-4.543-1.14-6.769c-2.416-10.516-8.253-19.102-15.414-26.904c-1.713-1.865-3.586-3.583-5.604-5.584
		c-0.925,1.285-1.714,2.408-2.529,3.513c-3.748,5.075-8.08,9.429-14.298,11.397c-6.656,2.107-12.815,0.748-18.612-2.81
		c-1.427-0.876-1.813-4.866-0.733-6.505c2.038-3.093,2.81-6.38,1.559-9.984c-0.896-0.064-1.792-0.127-2.688-0.191
		c-1.675,0.914-3.299,1.946-5.045,2.693c-0.872,0.374-1.97,0.203-2.961,0.319c-2.434,0.284-4.355-0.497-6.001-2.379
		c-0.739-0.846-1.993-1.242-3.014-1.842c-0.896-0.063-1.791-0.127-2.688-0.191c-1.293,3.766-1.403,7.427,0.793,10.961
		c0.962,1.548-0.209,5.013-1.945,5.938c-6.132,3.267-12.282,3.305-18.394-0.033c-5.684-3.105-9.621-7.962-13.09-13.265
		c-0.813-1.243-1.553-2.535-2.608-4.267c-3.225,3.104-6.473,5.932-9.371,9.082c-7.776,8.452-13.844,17.932-16.754,29.2
		c-0.032,0.124-0.195,0.213-0.296,0.319c-0.021,0.298-0.042,0.597-0.063,0.896c6.009-1.808,12.071-3.208,18.41-3.272
		C750.419,232.025,759.342,235.389,763.72,246.571z"/>
	<path d="M475.536,1232.476c-6.131,3.268-12.282,3.306-18.393-0.032c-5.685-3.105-9.622-7.963-13.09-13.265
		c-0.813-1.243-1.553-2.534-2.608-4.267c-3.225,3.104-6.473,5.932-9.371,9.082c-7.776,8.451-13.844,17.932-16.754,29.199
		c-0.032,0.124-0.195,0.214-0.296,0.319c-0.021,0.299-0.042,0.597-0.063,0.896c6.009-1.808,12.071-3.208,18.41-3.271
		c11.049-0.111,19.972,3.252,24.35,14.434c1.306-0.738,2.486-1.499,3.742-2.102c5.551-2.658,10.75-1.2,14.497,4.046
		c3.368,4.717,4.926,10.161,6.255,15.694c0.137,0.569,0.284,1.137,0.417,1.668c1.786-3.837,3.381-7.73,5.387-11.4
		c1.198-2.192,2.832-4.245,4.629-5.99c4.568-4.438,10.308-4.672,15.453-0.887c0.951,0.7,1.837,1.488,2.763,2.244
		c6.401-10.275,16.848-12.081,26.954-9.859c6.054,1.332,11.844,3.867,17.752,5.86c0.096-1.344,0.191-2.688,0.287-4.03
		c-0.373-2.259-0.628-4.543-1.139-6.77c-2.417-10.516-8.254-19.102-15.415-26.903c-1.712-1.866-3.586-3.583-5.604-5.585
		c-0.924,1.285-1.713,2.409-2.529,3.513c-3.748,5.075-8.08,9.429-14.298,11.397c-6.657,2.107-12.816,0.749-18.612-2.81
		c-1.427-0.876-1.813-4.866-0.733-6.505c2.038-3.093,2.809-6.38,1.558-9.984c-0.896-0.063-1.792-0.127-2.688-0.191
		c-1.675,0.915-3.299,1.947-5.045,2.694c-0.872,0.373-1.97,0.202-2.96,0.318c-2.434,0.284-4.355-0.497-6.001-2.379
		c-0.739-0.846-1.993-1.242-3.013-1.843c-0.896-0.063-1.792-0.127-2.688-0.19c-1.293,3.766-1.404,7.427,0.792,10.961
		C478.443,1228.086,477.272,1231.551,475.536,1232.476z"/>
	<path d="M390.986,839.404c5.328-3.17,11.285-5.279,16.959-7.865c-0.85-1.046-1.699-2.091-2.548-3.137
		c-1.816-1.393-3.565-2.886-5.46-4.16c-8.955-6.02-19.085-8.291-29.646-9.086c-2.525-0.19-5.066-0.162-7.907-0.242
		c0.205,1.569,0.397,2.929,0.557,4.292c0.736,6.266,0.553,12.405-2.637,18.094c-3.416,6.09-8.839,9.311-15.501,10.679
		c-1.64,0.336-4.65-2.311-4.983-4.245c-0.629-3.649-2.314-6.575-5.692-8.35c-0.697,0.565-1.394,1.132-2.091,1.698
		c-0.596,1.813-1.075,3.676-1.838,5.416c-0.381,0.868-1.298,1.494-1.942,2.257c-1.581,1.872-3.517,2.616-6.005,2.368
		c-1.118-0.111-2.304,0.457-3.458,0.717c-0.697,0.566-1.395,1.133-2.091,1.699c1.631,3.632,4.055,6.378,8.074,7.455
		c1.76,0.471,3.276,3.8,2.642,5.662c-2.239,6.577-6.7,10.811-13.442,12.555c-6.271,1.622-12.465,0.771-18.622-0.726
		c-1.444-0.351-2.866-0.787-4.821-1.329c-0.229,4.471-0.666,8.755-0.626,13.035c0.106,11.483,2.163,22.55,7.746,32.762
		c0.061,0.111,0.004,0.288,0.002,0.435c0.188,0.232,0.377,0.465,0.566,0.697c3.148-5.428,6.613-10.596,11.194-14.978
		c7.985-7.638,16.796-11.286,27.637-6.121c0.447-1.432,0.788-2.794,1.293-4.093c2.232-5.736,7.022-8.228,13.344-6.962
		c5.682,1.138,10.543,4.044,15.296,7.172c0.49,0.322,0.985,0.636,1.445,0.932c-1.321-4.02-2.819-7.952-3.866-12.001
		c-0.625-2.419-0.836-5.034-0.719-7.536c0.299-6.361,4.326-10.458,10.668-11.215c1.173-0.141,2.358-0.171,3.551-0.253
		C375.707,853.156,382.093,844.694,390.986,839.404z"/>
</g>
<g>
</g>
<g>
</g>
<g>
</g>
<g>
</g>
<g>
</g>
<g>
</g>
</svg>
